<?xml version="1.0" encoding="utf-8"?>
<svg version="1.1" xmlns="http://www.w3.org/2000/svg" xmlns:xlink="http://www.w3.org/1999/xlink" x="0px" y="0px"
	 viewBox="0 0 1000 1000" enable-background="new 0 0 1000 1000" xml:space="preserve">
<g><g transform="translate(0.000000,511.000000) scale(0.100000,-0.100000)"><path d="M582.5,3707.6c-126.9-26.9-273.1-115.4-353.8-217.3C88.3,3311.4,97.9,3563.4,101.8-51.9l5.8-3249.9l44.2-63.5c25-34.6,73.1-76.9,105.8-96.2c57.7-30.8,296.1-32.7,3849.8-38.5c2084.5-3.8,3834.5,0,3892.1,5.8c84.6,11.5,117.3,26.9,176.9,82.7c67.3,67.3,125,213.5,901.9,2290.3C9805.2,819.2,9909,1107.7,9899.4,1175c-11.6,84.6-55.8,153.8-136.6,213.5c-50,38.5-80.8,40.4-773,46.2l-719.2,5.8v371.1v371.1l-57.7,117.3c-63.4,125-146.1,209.6-275,276.9l-80.8,44.2l-2223,5.8l-2224.9,3.9l-7.7,323.1c-5.8,284.6-11.5,330.8-48.1,407.7c-71.1,142.3-151.9,225-290.4,292.3l-128.8,63.5l-1134.6,3.9C1176.7,3723,628.7,3715.3,582.5,3707.6z M2809.3,2794.2c9.6-305.8,13.5-332.7,61.5-425c61.5-115.4,178.8-226.9,301.9-284.6l88.5-40.4l2207.6-5.8l2205.7-3.8v-298.1v-298.1h-2846c-3130.6,0-2951.8,5.8-3038.3-115.4c-19.2-26.9-271.1-678.8-559.6-1444.2C944-886.4,705.6-1517.2,701.7-1521c-3.8-3.8-7.7,1040.3-7.7,2321v2330.7l1053.8-3.8l1051.9-5.8L2809.3,2794.2z M9174.4,838.5c0-3.8-315.4-844.2-700-1871.1l-699.9-1865.3l-3472.9-3.8c-1909.5,0-3472.9,0-3472.9,1.9c0,3.8,1323,3536.4,1382.6,3690.2l21.2,51.9h3471C7613,842.3,9174.4,840.4,9174.4,838.5z"/></g></g>
</svg>
